<svg width="50" height="62" viewBox="0 0 50 62" fill="none" xmlns="http://www.w3.org/2000/svg">
<path d="M44.6429 3.83521H5.35714C2.39955 3.83521 0 6.412 0 9.58804V51.7755C0 54.9516 2.39955 57.5284 5.35714 57.5284H44.6429C47.6004 57.5284 50 54.9516 50 51.7755V9.58804C50 6.412 47.6004 3.83521 44.6429 3.83521ZM26.7857 38.3522H21.4286V44.1051C21.4286 45.1598 20.625 46.0227 19.6429 46.0227H16.0714C15.0893 46.0227 14.2857 45.1598 14.2857 44.1051V17.2585C14.2857 16.2038 15.0893 15.3409 16.0714 15.3409H26.7857C32.6897 15.3409 37.5 20.5065 37.5 26.8466C37.5 33.1867 32.6897 38.3522 26.7857 38.3522ZM26.7857 23.0113H21.4286V30.6818H26.7857C28.75 30.6818 30.3571 28.9559 30.3571 26.8466C30.3571 24.7372 28.75 23.0113 26.7857 23.0113Z" fill="#3454D1"/>
</svg>
