<svg width="15" height="15" viewBox="0 0 15 15" fill="none" xmlns="http://www.w3.org/2000/svg">
<g clip-path="url(#clip0)">
<path d="M14.572 10.6L11.2907 9.19378C11.1506 9.13404 10.9948 9.12145 10.8468 9.15791C10.6989 9.19437 10.5668 9.2779 10.4704 9.39592L9.01729 11.1713C6.73674 10.0961 4.90143 8.26074 3.82617 5.9802L5.60156 4.52707C5.71983 4.43088 5.80353 4.29878 5.84001 4.15077C5.87648 4.00275 5.86374 3.84688 5.80371 3.70676L4.39746 0.425504C4.33158 0.274452 4.21505 0.151122 4.06797 0.0767824C3.9209 0.00244243 3.75249 -0.0182487 3.5918 0.0182769L0.544922 0.721403C0.389991 0.757179 0.251761 0.844414 0.152794 0.968869C0.0538258 1.09332 -3.56898e-05 1.24765 1.77428e-08 1.40666C1.77428e-08 8.92131 6.09082 15.0004 13.5938 15.0004C13.7528 15.0005 13.9072 14.9467 14.0317 14.8477C14.1562 14.7487 14.2435 14.6105 14.2793 14.4555L14.9824 11.4086C15.0187 11.2471 14.9976 11.0781 14.9227 10.9305C14.8478 10.7829 14.7237 10.666 14.572 10.6Z" fill="#EFEFEF"/>
</g>
<defs>
<clipPath id="clip0">
<rect width="15" height="15" fill="white"/>
</clipPath>
</defs>
</svg>
