<svg width="15" height="17" viewBox="0 0 15 17" fill="none" xmlns="http://www.w3.org/2000/svg">
<g clip-path="url(#clip0)">
<path d="M9.38079 7.94147L7.92474 11.1793C7.74896 11.5734 7.23919 11.5604 7.07806 11.1597L5.41107 7.0457L4.53217 9.38122H1.77533L7.12201 15.4562C7.33001 15.694 7.66693 15.694 7.87493 15.4562L13.2245 9.38122H10.0283L9.38079 7.94147ZM13.8779 2.40723L13.8075 2.3258C12.2988 0.61243 9.82903 0.61243 8.31732 2.3258L7.49994 3.2574L6.68255 2.32905C5.17377 0.61243 2.70111 0.61243 1.19233 2.32905L1.12202 2.40723C-0.30474 4.02939 -0.366263 6.61247 0.908149 8.33886H3.90814L4.9599 5.53103C5.1181 5.11083 5.65131 5.10106 5.82123 5.518L7.5263 9.72975L8.96185 6.54081C9.1347 6.15644 9.62689 6.15644 9.79974 6.54081L10.6083 8.33886H14.0917C15.3661 6.61247 15.3046 4.02939 13.8779 2.40723Z" fill="#D1345B"/>
</g>
<defs>
<clipPath id="clip0">
<rect width="15" height="16.6776" fill="white"/>
</clipPath>
</defs>
</svg>
