<svg width="17" height="19" viewBox="0 0 17 19" fill="none" xmlns="http://www.w3.org/2000/svg">
<path d="M8.49385 0.757294L10.3819 7.64403H16.4918L11.5488 11.9003L13.4369 18.787L8.49385 14.5308L3.55083 18.787L5.4389 11.9003L0.495883 7.64403H6.60579L8.49385 0.757294Z" fill="#FBBC04"/>
<path d="M8.49385 2.64835L9.89971 7.77623L10.0005 8.14403H10.3819H15.1449L11.2226 11.5214L10.983 11.7276L11.0666 12.0325L12.5214 17.3389L8.8201 14.1519L8.49385 13.871L8.1676 14.1519L4.46629 17.3389L5.92111 12.0325L6.00468 11.7276L5.76515 11.5214L1.84284 8.14403H6.60579H6.98716L7.08799 7.77623L8.49385 2.64835Z" stroke="white" stroke-opacity="0.6"/>
</svg>
