<svg width="29" height="48" viewBox="0 0 29 48" fill="none" xmlns="http://www.w3.org/2000/svg">
<g clip-path="url(#clip0)">
<path d="M11.7124 29.4843V44.0608L13.8533 47.1326C14.3151 47.795 15.333 47.795 15.7948 47.1326L17.9347 44.0608V29.4843C16.9245 29.6629 15.8872 29.7689 14.8235 29.7689C13.7599 29.7689 12.7226 29.6629 11.7124 29.4843ZM14.8235 0C7.09146 0 0.823547 5.99751 0.823547 13.396C0.823547 20.7945 7.09146 26.792 14.8235 26.792C22.5556 26.792 28.8235 20.7945 28.8235 13.396C28.8235 5.99751 22.5556 0 14.8235 0ZM14.8235 7.07012C11.1777 7.07012 8.21244 9.90748 8.21244 13.396C8.21244 14.0119 7.68938 14.5124 7.04577 14.5124C6.40216 14.5124 5.8791 14.0119 5.8791 13.396C5.8791 8.67672 9.89244 4.83745 14.8235 4.83745C15.4672 4.83745 15.9902 5.33794 15.9902 5.95379C15.9902 6.56963 15.4672 7.07012 14.8235 7.07012Z" fill="#3454D1"/>
</g>
<defs>
<clipPath id="clip0">
<rect width="28" height="47.6303" fill="white" transform="translate(0.823547)"/>
</clipPath>
</defs>
</svg>
