<svg width="60" height="48" viewBox="0 0 60 48" fill="none" xmlns="http://www.w3.org/2000/svg">
<g clip-path="url(#clip0)">
<path d="M59.5227 14.52C42.9131 -0.84281 17.0802 -0.837185 0.477108 14.52C-0.147267 15.0975 -0.159455 16.0753 0.444295 16.6744L3.6543 19.8591C4.22992 20.4309 5.15617 20.4431 5.7543 19.8947C19.4343 7.36219 40.5637 7.35937 54.2465 19.8947C54.8446 20.4431 55.7709 20.43 56.3465 19.8591L59.5565 16.6744C60.1593 16.0753 60.1471 15.0975 59.5227 14.52ZM29.9999 33C26.6859 33 23.9999 35.6859 23.9999 39C23.9999 42.314 26.6859 45 29.9999 45C33.314 45 35.9999 42.314 35.9999 39C35.9999 35.6859 33.314 33 29.9999 33ZM49.0002 25.1634C38.1946 15.6075 21.7931 15.6178 10.9996 25.1634C10.3527 25.7353 10.3321 26.7281 10.9462 27.3337L14.1749 30.5203C14.7374 31.0753 15.6431 31.1128 16.2421 30.5953C24.1124 23.7919 35.9052 23.8069 43.7568 30.5953C44.3559 31.1128 45.2615 31.0762 45.824 30.5203L49.0527 27.3337C49.6677 26.7281 49.6462 25.7344 49.0002 25.1634Z" fill="#3454D1"/>
</g>
<defs>
<clipPath id="clip0">
<rect width="60" height="48" fill="white"/>
</clipPath>
</defs>
</svg>
